<svg width="112" height="54" viewBox="0 0 112 54" fill="none" xmlns="http://www.w3.org/2000/svg">
<g clip-path="url(#clip0_2196_24188)">
<path d="M27.6346 40.677V19.157H34.5546V39.677C34.5546 40.4504 34.7812 41.0637 35.2346 41.517C35.6879 41.9704 36.3012 42.197 37.0746 42.197H41.3546V47.957H34.9146C33.7412 47.957 32.2346 47.4637 30.3946 46.477C28.5546 45.4637 27.6346 43.5304 27.6346 40.677ZM42.3221 47.957V26.517C42.3221 24.3037 43.0687 22.437 44.5621 20.917C46.0554 19.397 47.8821 18.637 50.0421 18.637C50.3887 18.637 51.1754 18.7037 52.4021 18.837C53.6287 18.9437 55.0821 19.9304 56.7621 21.797L57.5621 22.877L58.3621 21.797C59.9887 19.9304 61.4154 18.9437 62.6421 18.837C63.8954 18.7037 64.6954 18.637 65.0421 18.637C67.1754 18.637 68.9887 19.4104 70.4821 20.957C72.0021 22.477 72.7621 24.3304 72.7621 26.517V47.957H65.8821V27.237C65.8821 26.1704 65.5621 25.477 64.9221 25.157C64.2821 24.8104 63.7487 24.637 63.3221 24.637C62.7621 24.637 62.2821 24.7837 61.8821 25.077C61.4821 25.3704 61.2021 25.7837 61.0421 26.317L60.9221 27.277V47.957H54.0421V27.277L53.9221 26.357C53.7887 25.8237 53.5087 25.4104 53.0821 25.117C52.6821 24.797 52.2154 24.637 51.6821 24.637C51.4154 24.637 51.0154 24.757 50.4821 24.997C49.9487 25.237 49.5754 25.717 49.3621 26.437L49.2421 27.237V47.957H42.3221ZM89.5336 18.637V25.437C87.8803 25.437 86.3603 25.9304 84.9736 26.917C83.6136 27.9037 82.747 28.9304 82.3736 29.997C82.0003 31.0637 81.7736 31.8637 81.6936 32.397C81.6136 32.9304 81.5736 33.397 81.5736 33.797C81.5736 35.6104 82.1336 37.2504 83.2536 38.717C84.4003 40.157 85.4936 41.0237 86.5336 41.317C87.6003 41.5837 88.3203 41.757 88.6936 41.837C89.067 41.917 89.347 41.957 89.5336 41.957V48.357C86.3603 48.357 83.4803 47.4637 80.8936 45.677C78.307 43.8637 76.6136 41.797 75.8136 39.477C75.0403 37.1304 74.6536 35.1704 74.6536 33.597C74.6536 31.357 75.1203 29.237 76.0536 27.237C77.0136 25.237 78.6136 23.3037 80.8536 21.437C83.1203 19.5704 86.0136 18.637 89.5336 18.637ZM91.0989 47.997V41.677C91.4189 41.8104 91.7256 41.877 92.0189 41.877C92.2856 41.9037 92.4723 41.917 92.5789 41.917C94.2323 41.917 95.0589 41.077 95.0589 39.397C95.0589 38.9704 94.9923 38.3837 94.8589 37.637L92.9389 28.357C92.8056 27.637 92.7389 27.0104 92.7389 26.477C92.7389 24.2104 93.5923 22.397 95.2989 21.037C97.0323 19.677 99.3789 18.997 102.339 18.997C102.819 18.997 103.352 19.0637 103.939 19.197V25.597C103.566 25.4904 103.272 25.437 103.059 25.437C101.032 25.437 100.019 26.2504 100.019 27.877C100.019 28.1704 100.019 28.3837 100.019 28.517C100.046 28.6504 100.112 28.9837 100.219 29.517L102.139 38.837C102.219 39.317 102.286 39.7437 102.339 40.117C102.392 40.4904 102.419 40.877 102.419 41.277C102.419 43.517 101.632 45.237 100.059 46.437C98.4856 47.637 96.1523 48.237 93.0589 48.237C92.3923 48.237 91.7389 48.157 91.0989 47.997Z" fill="#F3F3F3"/>
<path d="M15.6887 18.9992C8.2681 25.987 6.1896 34.0063 5.35698 33.7317C4.74923 33.5364 5.47245 29.3437 7.18023 25.3401C7.6725 24.2172 11.2643 16.2406 19.4507 11.3033C33.2952 2.89955 50.8955 8.73398 50.8652 9.05133C50.8348 9.36869 39.2511 6.44537 26.8652 11.7549C22.7566 13.514 18.9769 15.9639 15.6887 18.9992Z" fill="#E2FD52"/>
<path d="M11.7077 13.9455C8.46173 16.8832 5.76541 20.3803 3.74619 24.2717C1.31519 29.1541 0.707446 33.4262 0.282022 33.3285C-0.143402 33.2309 -0.240641 28.2875 1.10248 23.6248C4.25062 12.6334 15.026 4.45542 25.461 1.43446C31.6937 -0.342523 38.2781 -0.470768 44.5747 1.06218C50.9864 2.67946 56.2192 5.99337 56.0186 6.50601C55.818 7.01866 51.5091 4.67513 43.9548 3.90005C38.3357 3.32886 32.6598 3.83629 27.2296 5.39528C21.4958 7.0727 16.1977 9.9912 11.7077 13.9455Z" fill="#3E80B3"/>
</g>
<defs>
<clipPath id="clip0_2196_24188">
<rect width="112" height="54" fill="white"/>
</clipPath>
</defs>
</svg>
