<svg width="112" height="54" viewBox="0 0 112 54" fill="none" xmlns="http://www.w3.org/2000/svg">
<g clip-path="url(#clip0_1428_15563)">
<path d="M27.6346 43.6761V22.1561H34.5546V42.6761C34.5546 43.4494 34.7812 44.0627 35.2346 44.5161C35.6879 44.9694 36.3012 45.1961 37.0746 45.1961H41.3546V50.9561H34.9146C33.7412 50.9561 32.2346 50.4627 30.3946 49.4761C28.5546 48.4627 27.6346 46.5294 27.6346 43.6761ZM42.3221 50.9561V29.5161C42.3221 27.3027 43.0687 25.4361 44.5621 23.9161C46.0554 22.3961 47.8821 21.6361 50.0421 21.6361C50.3887 21.6361 51.1754 21.7027 52.4021 21.8361C53.6287 21.9427 55.0821 22.9294 56.7621 24.7961L57.5621 25.8761L58.3621 24.7961C59.9887 22.9294 61.4154 21.9427 62.6421 21.8361C63.8954 21.7027 64.6954 21.6361 65.0421 21.6361C67.1754 21.6361 68.9887 22.4094 70.4821 23.9561C72.0021 25.4761 72.7621 27.3294 72.7621 29.5161V50.9561H65.8821V30.2361C65.8821 29.1694 65.5621 28.4761 64.9221 28.1561C64.2821 27.8094 63.7487 27.6361 63.3221 27.6361C62.7621 27.6361 62.2821 27.7827 61.8821 28.0761C61.4821 28.3694 61.2021 28.7827 61.0421 29.3161L60.9221 30.2761V50.9561H54.0421V30.2761L53.9221 29.3561C53.7887 28.8227 53.5087 28.4094 53.0821 28.1161C52.6821 27.7961 52.2154 27.6361 51.6821 27.6361C51.4154 27.6361 51.0154 27.7561 50.4821 27.9961C49.9487 28.2361 49.5754 28.7161 49.3621 29.4361L49.2421 30.2361V50.9561H42.3221ZM89.5336 21.6361V28.4361C87.8803 28.4361 86.3603 28.9294 84.9736 29.9161C83.6136 30.9027 82.747 31.9294 82.3736 32.9961C82.0003 34.0627 81.7736 34.8627 81.6936 35.3961C81.6136 35.9294 81.5736 36.3961 81.5736 36.7961C81.5736 38.6094 82.1336 40.2494 83.2536 41.7161C84.4003 43.1561 85.4936 44.0227 86.5336 44.3161C87.6003 44.5827 88.3203 44.7561 88.6936 44.8361C89.067 44.9161 89.347 44.9561 89.5336 44.9561V51.3561C86.3603 51.3561 83.4803 50.4627 80.8936 48.6761C78.307 46.8627 76.6136 44.7961 75.8136 42.4761C75.0403 40.1294 74.6536 38.1694 74.6536 36.5961C74.6536 34.3561 75.1203 32.2361 76.0536 30.2361C77.0136 28.2361 78.6136 26.3027 80.8536 24.4361C83.1203 22.5694 86.0136 21.6361 89.5336 21.6361ZM91.0989 50.9961V44.6761C91.4189 44.8094 91.7256 44.8761 92.0189 44.8761C92.2856 44.9027 92.4723 44.9161 92.5789 44.9161C94.2323 44.9161 95.0589 44.0761 95.0589 42.3961C95.0589 41.9694 94.9923 41.3827 94.8589 40.6361L92.9389 31.3561C92.8056 30.6361 92.7389 30.0094 92.7389 29.4761C92.7389 27.2094 93.5923 25.3961 95.2989 24.0361C97.0323 22.6761 99.3789 21.9961 102.339 21.9961C102.819 21.9961 103.352 22.0627 103.939 22.1961V28.5961C103.566 28.4894 103.272 28.4361 103.059 28.4361C101.032 28.4361 100.019 29.2494 100.019 30.8761C100.019 31.1694 100.019 31.3827 100.019 31.5161C100.046 31.6494 100.112 31.9827 100.219 32.5161L102.139 41.8361C102.219 42.3161 102.286 42.7427 102.339 43.1161C102.392 43.4894 102.419 43.8761 102.419 44.2761C102.419 46.5161 101.632 48.2361 100.059 49.4361C98.4856 50.6361 96.1523 51.2361 93.0589 51.2361C92.3923 51.2361 91.7389 51.1561 91.0989 50.9961Z" fill="#1D1D1B"/>
<path d="M15.6887 21.9987C8.2681 28.9866 6.1896 37.0058 5.35698 36.7312C4.74923 36.5359 5.47245 32.3432 7.18023 28.3396C7.6725 27.2167 11.2643 19.2401 19.4507 14.3028C33.2952 5.89906 50.8955 11.7335 50.8652 12.0508C50.8348 12.3682 39.2511 9.44488 26.8652 14.7545C22.7566 16.5135 18.9769 18.9634 15.6887 21.9987Z" fill="#E2FD52"/>
<path d="M11.7077 16.9455C8.46173 19.8832 5.76541 23.3803 3.74619 27.2717C1.31519 32.1541 0.707446 36.4262 0.282022 36.3285C-0.143402 36.2309 -0.240641 31.2875 1.10248 26.6248C4.25062 15.6334 15.026 7.45542 25.461 4.43446C31.6937 2.65748 38.2781 2.52923 44.5747 4.06218C50.9864 5.67946 56.2192 8.99337 56.0186 9.50601C55.818 10.0187 51.5091 7.67513 43.9548 6.90005C38.3357 6.32886 32.6598 6.83629 27.2296 8.39528C21.4958 10.0727 16.1977 12.9912 11.7077 16.9455Z" fill="#3D80B3"/>
</g>
<defs>
<clipPath id="clip0_1428_15563">
<rect width="112" height="54" fill="white"/>
</clipPath>
</defs>
</svg>
