<svg width="530" height="31" viewBox="0 0 530 31" fill="none" xmlns="http://www.w3.org/2000/svg">
<g opacity="0.5">
<rect x="99.5" y="14.5454" width="120" height="2" fill="#656565"/>
<path d="M260.88 22.7254C259.813 22.7254 258.853 22.4921 258 22.0254C257.147 21.5454 256.473 20.8721 255.98 20.0054C255.5 19.1387 255.26 18.1387 255.26 17.0054C255.26 15.8721 255.507 14.8721 256 14.0054C256.507 13.1387 257.193 12.4721 258.06 12.0054C258.927 11.5254 259.893 11.2854 260.96 11.2854C262.027 11.2854 262.993 11.5254 263.86 12.0054C264.727 12.4721 265.407 13.1387 265.9 14.0054C266.407 14.8721 266.66 15.8721 266.66 17.0054C266.66 18.1387 266.4 19.1387 265.88 20.0054C265.373 20.8721 264.68 21.5454 263.8 22.0254C262.933 22.4921 261.96 22.7254 260.88 22.7254ZM260.88 20.2854C261.387 20.2854 261.86 20.1654 262.3 19.9254C262.753 19.6721 263.113 19.2987 263.38 18.8054C263.647 18.3121 263.78 17.7121 263.78 17.0054C263.78 15.9521 263.5 15.1454 262.94 14.5854C262.393 14.0121 261.72 13.7254 260.92 13.7254C260.12 13.7254 259.447 14.0121 258.9 14.5854C258.367 15.1454 258.1 15.9521 258.1 17.0054C258.1 18.0587 258.36 18.8721 258.88 19.4454C259.413 20.0054 260.08 20.2854 260.88 20.2854ZM271.514 13.1854C271.874 12.5987 272.341 12.1387 272.914 11.8054C273.501 11.4721 274.167 11.3054 274.914 11.3054V14.2454H274.174C273.294 14.2454 272.627 14.4521 272.174 14.8654C271.734 15.2787 271.514 15.9987 271.514 17.0254V22.5454H268.714V11.4654H271.514V13.1854Z" fill="#656565"/>
<rect x="310.5" y="14.5454" width="120" height="2" fill="#656565"/>
</g>
</svg>
