<svg width="896" height="32" viewBox="0 0 896 32" fill="none" xmlns="http://www.w3.org/2000/svg">
<rect width="32" height="32" rx="16" fill="#3D80B3"/>
<path d="M14.0455 11.76V10.432H17.0535V22H15.5815V11.76H14.0455Z" fill="white"/>
<rect x="32" y="12" width="256" height="8" fill="#3D80B3" fill-opacity="0.5"/>
<rect x="288" width="32" height="32" rx="16" fill="#3D80B3" fill-opacity="0.5"/>
<path d="M300.214 20.832C301.569 19.744 302.63 18.8533 303.398 18.16C304.166 17.456 304.812 16.7253 305.334 15.968C305.868 15.2 306.134 14.448 306.134 13.712C306.134 13.0187 305.964 12.4747 305.622 12.08C305.292 11.6747 304.753 11.472 304.006 11.472C303.281 11.472 302.716 11.7013 302.31 12.16C301.916 12.608 301.702 13.2107 301.67 13.968H300.262C300.305 12.7733 300.668 11.8507 301.35 11.2C302.033 10.5493 302.913 10.224 303.99 10.224C305.089 10.224 305.958 10.528 306.598 11.136C307.249 11.744 307.574 12.5813 307.574 13.648C307.574 14.5333 307.308 15.3973 306.774 16.24C306.252 17.072 305.654 17.808 304.982 18.448C304.31 19.0773 303.452 19.8133 302.406 20.656H307.91V21.872H300.214V20.832Z" fill="white"/>
<rect x="320" y="12" width="256" height="8" fill="#3D80B3" fill-opacity="0.5"/>
<rect x="576" width="32" height="32" rx="16" fill="#3D80B3" fill-opacity="0.5"/>
<path d="M588.249 13.344C588.324 12.3627 588.702 11.5947 589.385 11.04C590.068 10.4853 590.953 10.208 592.041 10.208C592.766 10.208 593.39 10.3413 593.913 10.608C594.446 10.864 594.846 11.216 595.113 11.664C595.39 12.112 595.529 12.6187 595.529 13.184C595.529 13.8453 595.337 14.416 594.953 14.896C594.58 15.376 594.089 15.6853 593.481 15.824V15.904C594.174 16.0747 594.724 16.4107 595.129 16.912C595.534 17.4133 595.737 18.0693 595.737 18.88C595.737 19.488 595.598 20.0373 595.321 20.528C595.044 21.008 594.628 21.3867 594.073 21.664C593.518 21.9413 592.852 22.08 592.073 22.08C590.942 22.08 590.014 21.7867 589.289 21.2C588.564 20.6027 588.158 19.76 588.073 18.672H589.481C589.556 19.312 589.817 19.8347 590.265 20.24C590.713 20.6453 591.31 20.848 592.057 20.848C592.804 20.848 593.369 20.656 593.753 20.272C594.148 19.8773 594.345 19.3707 594.345 18.752C594.345 17.952 594.078 17.376 593.545 17.024C593.012 16.672 592.206 16.496 591.129 16.496H590.761V15.28H591.145C592.126 15.2693 592.868 15.1093 593.369 14.8C593.87 14.48 594.121 13.9893 594.121 13.328C594.121 12.7627 593.934 12.3093 593.561 11.968C593.198 11.6267 592.676 11.456 591.993 11.456C591.332 11.456 590.798 11.6267 590.393 11.968C589.988 12.3093 589.748 12.768 589.673 13.344H588.249Z" fill="white"/>
<rect x="608" y="12" width="256" height="8" fill="#3D80B3" fill-opacity="0.5"/>
<rect x="864" width="32" height="32" rx="16" fill="#3D80B3" fill-opacity="0.5"/>
<path d="M875.609 19.424V18.32L881.225 10.544H882.969V18.16H884.569V19.424H882.969V22H881.529V19.424H875.609ZM881.593 12.064L877.289 18.16H881.593V12.064Z" fill="white"/>
</svg>
