<svg width="26" height="28" viewBox="0 0 26 28" fill="none" xmlns="http://www.w3.org/2000/svg">
<path d="M22.3744 22.1666V19.0873C22.3858 18.584 22.227 18.0935 21.928 17.7094C21.0849 16.626 18.1932 15.9329 17.047 16.1991C16.1534 16.4065 15.5283 17.3853 14.9172 18.0506C12.5569 16.5895 10.6027 14.4618 9.26062 11.8921C9.87177 11.2267 10.7707 10.5461 10.9613 9.57327C11.2053 8.32724 10.571 5.19283 9.5847 4.26936C9.2378 3.94454 8.79424 3.76815 8.33672 3.77305H5.50845C4.43081 3.77415 3.53424 4.82857 3.63236 6.01066C3.625 16.1991 10.9167 24.2275 20.3192 24.2195C21.4086 24.3267 22.3788 23.3437 22.3744 22.1666Z" stroke="#3D80B3" stroke-width="1.5" stroke-linecap="round" stroke-linejoin="round"/>
</svg>
