<svg width="26" height="28" viewBox="0 0 26 28" fill="none" xmlns="http://www.w3.org/2000/svg">
<path d="M13.0013 16.273V14.0002M13.0013 16.273V18.5457M13.0013 16.273H19.2513C20.4019 16.273 21.3346 15.2554 21.3346 14.0002M13.0013 16.273H6.7513C5.60071 16.273 4.66797 15.2554 4.66797 14.0002M21.3346 14.0002V20.8184C21.3346 22.0736 20.4019 23.0911 19.2513 23.0911H6.7513C5.60071 23.0911 4.66797 22.0736 4.66797 20.8184V14.0002M21.3346 14.0002V9.45477C21.3346 8.19958 20.4019 7.18204 19.2513 7.18204H6.7513C5.60071 7.18204 4.66797 8.19958 4.66797 9.45477V14.0002M16.1263 7.18204V6.04568C16.1263 4.79048 15.1936 3.77295 14.043 3.77295H11.9596C10.809 3.77295 9.8763 4.79048 9.8763 6.04568V7.18204" stroke="#3D80B3" stroke-width="1.5" stroke-linecap="round" stroke-linejoin="round"/>
</svg>
