<svg width="13" height="14" viewBox="0 0 13 14" fill="none" xmlns="http://www.w3.org/2000/svg">
<path d="M6.5 8.86426V7.50062M6.5 8.86426V10.2279M6.5 8.86426H10.25C10.9404 8.86426 11.5 8.25374 11.5 7.50062M6.5 8.86426H2.75C2.05964 8.86426 1.5 8.25374 1.5 7.50062M11.5 7.50062V11.5915C11.5 12.3446 10.9404 12.9552 10.25 12.9552H2.75C2.05964 12.9552 1.5 12.3446 1.5 11.5915V7.50062M11.5 7.50062V4.77335C11.5 4.02023 10.9404 3.40971 10.25 3.40971H2.75C2.05964 3.40971 1.5 4.02023 1.5 4.77335V7.50062M8.375 3.40971V2.72789C8.375 1.97478 7.81536 1.36426 7.125 1.36426H5.875C5.18464 1.36426 4.625 1.97478 4.625 2.72789V3.40971" stroke="#3D80B3" stroke-width="1.5" stroke-linecap="round" stroke-linejoin="round"/>
</svg>
