
<svg width="120" height="120" viewBox="0 0 120 120" fill="none" xmlns="http://www.w3.org/2000/svg">
<path d="M22.5013 91.818H14.168V87.2725C14.168 78.8005 19.4795 71.6819 26.668 69.6635M35.0013 54.6785C30.1463 52.8065 26.668 47.7554 26.668 41.818C26.668 35.8807 30.1463 30.8296 35.0013 28.9576M97.5013 91.818H105.835V87.2725C105.835 78.8005 100.523 71.6819 93.3346 69.6635M85.0013 28.9576C89.8563 30.8296 93.3346 35.8807 93.3346 41.818C93.3346 47.7554 89.8563 52.8065 85.0013 54.6785M51.668 69.0907H68.3346C77.5394 69.0907 85.0013 77.231 85.0013 87.2725V91.818H35.0013V87.2725C35.0013 77.231 42.4632 69.0907 51.668 69.0907ZM72.5013 41.818C72.5013 49.3492 66.9049 55.4544 60.0013 55.4544C53.0977 55.4544 47.5013 49.3492 47.5013 41.818C47.5013 34.2868 53.0977 28.1816 60.0013 28.1816C66.9049 28.1816 72.5013 34.2868 72.5013 41.818Z" stroke="#3D80B3" stroke-width="3" stroke-linecap="round" stroke-linejoin="round"/>
</svg>
