<svg width="26" height="28" viewBox="0 0 26 28" fill="none" xmlns="http://www.w3.org/2000/svg">
<path d="M3.6263 21.9545H1.54297V20.8181C1.54297 18.7001 2.87086 16.9205 4.66797 16.4159M6.7513 12.6696C5.53756 12.2016 4.66797 10.9389 4.66797 9.45451C4.66797 7.97017 5.53756 6.7074 6.7513 6.2394M22.3763 21.9545H24.4596V20.8181C24.4596 18.7001 23.1317 16.9205 21.3346 16.4159M19.2513 6.2394C20.465 6.7074 21.3346 7.97017 21.3346 9.45451C21.3346 10.9389 20.465 12.2016 19.2513 12.6696M10.918 16.2727H15.0846C17.3858 16.2727 19.2513 18.3078 19.2513 20.8181V21.9545H6.7513V20.8181C6.7513 18.3078 8.61678 16.2727 10.918 16.2727ZM16.1263 9.4545C16.1263 11.3373 14.7272 12.8636 13.0013 12.8636C11.2754 12.8636 9.8763 11.3373 9.8763 9.4545C9.8763 7.57171 11.2754 6.04541 13.0013 6.04541C14.7272 6.04541 16.1263 7.57171 16.1263 9.4545Z" stroke="#3D80B3" stroke-width="1.5" stroke-linecap="round" stroke-linejoin="round"/>
</svg>
