<svg width="35" height="40" viewBox="0 0 35 40" fill="none" xmlns="http://www.w3.org/2000/svg">
<path d="M27.7083 7.27295V16.8184M27.7083 16.8184C26.0975 16.8184 24.7917 18.243 24.7917 20.0002C24.7917 21.7575 26.0975 23.182 27.7083 23.182M27.7083 16.8184C29.3192 16.8184 30.625 18.243 30.625 20.0002C30.625 21.7575 29.3192 23.182 27.7083 23.182M27.7083 23.182V32.7275M17.5 7.27295V26.3639M17.5 26.3639C15.8892 26.3639 14.5833 27.7884 14.5833 29.5457C14.5833 31.303 15.8892 32.7275 17.5 32.7275C19.1108 32.7275 20.4167 31.303 20.4167 29.5457C20.4167 27.7884 19.1108 26.3639 17.5 26.3639ZM7.29167 13.6366V32.7275M7.29167 13.6366C8.9025 13.6366 10.2083 12.212 10.2083 10.4548C10.2083 8.6975 8.9025 7.27295 7.29167 7.27295C5.68084 7.27295 4.375 8.6975 4.375 10.4548C4.375 12.212 5.68084 13.6366 7.29167 13.6366Z" stroke="#7C7C7C" stroke-linecap="round"/>
</svg>
