<svg width="61" height="61" viewBox="0 0 61 61" fill="none" xmlns="http://www.w3.org/2000/svg">
<path fill-rule="evenodd" clip-rule="evenodd" d="M45.1813 30.8863C45.1813 29.8227 45.0858 28.7999 44.9086 27.8181H30.7812V33.6204H38.854C38.5063 35.4954 37.4494 37.084 35.8608 38.1477V41.9113H40.7085C43.5449 39.3 45.1813 35.4545 45.1813 30.8863Z" fill="#4285F4"/>
<path fill-rule="evenodd" clip-rule="evenodd" d="M30.7806 45.5453C34.8306 45.5453 38.226 44.2021 40.7078 41.9112L35.8601 38.1475C34.5169 39.0475 32.7987 39.5794 30.7806 39.5794C26.8737 39.5794 23.5669 36.9407 22.3874 33.3953H17.376V37.2816C19.8442 42.1839 24.9169 45.5453 30.7806 45.5453Z" fill="#34A853"/>
<path fill-rule="evenodd" clip-rule="evenodd" d="M22.3881 33.3955C22.0881 32.4955 21.9176 31.5341 21.9176 30.5455C21.9176 29.5568 22.0881 28.5955 22.3881 27.6955V23.8091H17.3767C16.3608 25.8341 15.7812 28.125 15.7812 30.5455C15.7812 32.9659 16.3608 35.2568 17.3767 37.2818L22.3881 33.3955Z" fill="#FBBC05"/>
<path fill-rule="evenodd" clip-rule="evenodd" d="M30.7806 21.5113C32.9828 21.5113 34.9601 22.2682 36.5147 23.7545L40.8169 19.4522C38.2192 17.0318 34.8237 15.5454 30.7806 15.5454C24.9169 15.5454 19.8442 18.9068 17.376 23.8091L22.3874 27.6954C23.5669 24.15 26.8737 21.5113 30.7806 21.5113Z" fill="#EA4335"/>
</svg>
