<svg width="25" height="26" viewBox="0 0 25 26" fill="none" xmlns="http://www.w3.org/2000/svg">
<path d="M12.5 15.1875C11.3281 15.1875 10.3125 14.25 10.3125 13C10.3125 11.8281 11.25 10.8125 12.5 10.8125C13.6719 10.8125 14.6875 11.75 14.6875 13C14.6875 14.1719 13.6719 15.1875 12.5 15.1875Z" fill="#30353C"/>
<path fill-rule="evenodd" clip-rule="evenodd" d="M15.1562 7.6875H9.84375C9.21875 7.76562 8.90625 7.84375 8.67188 7.92187C8.35938 8 8.125 8.15625 7.89063 8.39062C7.70517 8.57608 7.61754 8.76154 7.51163 8.98571C7.48372 9.04478 7.45446 9.10671 7.42188 9.17187C7.40979 9.20813 7.39583 9.24626 7.38088 9.28712C7.29915 9.51041 7.1875 9.81543 7.1875 10.3437V15.6562C7.26562 16.2812 7.34375 16.5937 7.42188 16.8281C7.5 17.1406 7.65625 17.375 7.89063 17.6094C8.07608 17.7948 8.26154 17.8825 8.48571 17.9884C8.54484 18.0163 8.60665 18.0455 8.67188 18.0781C8.70813 18.0902 8.74626 18.1042 8.78712 18.1191C9.01042 18.2009 9.31544 18.3125 9.84375 18.3125H15.1562C15.7812 18.2344 16.0938 18.1562 16.3281 18.0781C16.6406 18 16.875 17.8437 17.1094 17.6094C17.2948 17.4239 17.3825 17.2385 17.4884 17.0143C17.5163 16.9552 17.5455 16.8933 17.5781 16.8281C17.5902 16.7919 17.6042 16.7537 17.6191 16.7129C17.7009 16.4896 17.8125 16.1846 17.8125 15.6562V10.3437C17.7344 9.71875 17.6562 9.40625 17.5781 9.17187C17.5 8.85937 17.3438 8.625 17.1094 8.39062C16.9239 8.20516 16.7385 8.11754 16.5143 8.01163C16.4553 7.98374 16.3932 7.95443 16.3281 7.92187C16.2919 7.90979 16.2537 7.89583 16.2129 7.88087C15.9896 7.79914 15.6846 7.6875 15.1562 7.6875ZM12.5 9.64062C10.625 9.64062 9.14062 11.125 9.14062 13C9.14062 14.875 10.625 16.3594 12.5 16.3594C14.375 16.3594 15.8594 14.875 15.8594 13C15.8594 11.125 14.375 9.64062 12.5 9.64062ZM16.7188 9.5625C16.7188 9.99397 16.369 10.3437 15.9375 10.3437C15.506 10.3437 15.1562 9.99397 15.1562 9.5625C15.1562 9.13103 15.506 8.78125 15.9375 8.78125C16.369 8.78125 16.7188 9.13103 16.7188 9.5625Z" fill="#30353C"/>
<path fill-rule="evenodd" clip-rule="evenodd" d="M0 13C0 6.09644 5.59644 0.5 12.5 0.5C19.4036 0.5 25 6.09644 25 13C25 19.9036 19.4036 25.5 12.5 25.5C5.59644 25.5 0 19.9036 0 13ZM9.84375 6.51562H15.1562C15.8594 6.59375 16.3281 6.67187 16.7188 6.82812C17.1875 7.0625 17.5 7.21875 17.8906 7.60937C18.2812 8 18.5156 8.39062 18.6719 8.78125C18.8281 9.17187 18.9844 9.64062 18.9844 10.3437V15.6562C18.9062 16.3594 18.8281 16.8281 18.6719 17.2187C18.4375 17.6875 18.2812 18 17.8906 18.3906C17.5 18.7812 17.1094 19.0156 16.7188 19.1719C16.3281 19.3281 15.8594 19.4844 15.1562 19.4844H9.84375C9.14063 19.4062 8.67188 19.3281 8.28125 19.1719C7.8125 18.9375 7.5 18.7812 7.10938 18.3906C6.71875 18 6.48438 17.6094 6.32813 17.2187C6.17188 16.8281 6.01562 16.3594 6.01562 15.6562V10.3437C6.09375 9.64062 6.17188 9.17187 6.32813 8.78125C6.5625 8.3125 6.71875 8 7.10938 7.60937C7.5 7.21875 7.89063 6.98437 8.28125 6.82812C8.67188 6.67187 9.14063 6.51562 9.84375 6.51562Z" fill="#30353C"/>
</svg>
