<svg width="25" height="26" viewBox="0 0 25 26" fill="none" xmlns="http://www.w3.org/2000/svg">
<path fill-rule="evenodd" clip-rule="evenodd" d="M0 13C0 6.09644 5.59644 0.5 12.5 0.5C19.4036 0.5 25 6.09644 25 13C25 19.9036 19.4036 25.5 12.5 25.5C5.59644 25.5 0 19.9036 0 13ZM6.40625 10.8906V19.25H9.0625V10.8906H6.40625ZM6.25 8.23438C6.25 9.09375 6.875 9.71875 7.73438 9.71875C8.59375 9.71875 9.21875 9.09375 9.21875 8.23438C9.21875 7.375 8.59375 6.75 7.73438 6.75C6.95313 6.75 6.25 7.375 6.25 8.23438ZM16.0938 19.25H18.5938V14.0938C18.5938 11.5156 17.0312 10.6562 15.5469 10.6562C14.2187 10.6562 13.2812 11.5156 13.0469 12.0625V10.8906H10.5469V19.25H13.2031V14.7969C13.2031 13.625 13.9844 13 14.7656 13C15.5469 13 16.0938 13.3906 16.0938 14.7187V19.25Z" fill="#30353C"/>
</svg>
