<svg width="11" height="15" viewBox="0 0 11 15" fill="none" xmlns="http://www.w3.org/2000/svg">
<path d="M5.5 14.4745C5.48265 14.4565 5.46414 14.4371 5.44451 14.4166C5.2956 14.2606 5.08243 14.0332 4.82645 13.7488C4.31423 13.1796 3.63181 12.3834 2.95 11.4743C2.26758 10.5645 1.5895 9.54642 1.08298 8.53338C0.574432 7.51628 0.25 6.52604 0.25 5.66602C0.25 2.76075 2.59474 0.416016 5.5 0.416016C8.40526 0.416016 10.75 2.76075 10.75 5.66602C10.75 6.52604 10.4256 7.51628 9.91702 8.53338C9.4105 9.54642 8.73242 10.5645 8.05 11.4743C7.36819 12.3834 6.68577 13.1796 6.17355 13.7488C5.91757 14.0332 5.7044 14.2606 5.55549 14.4166C5.53586 14.4371 5.51734 14.4565 5.5 14.4745ZM9.41667 5.66602C9.41667 3.51209 7.67388 1.74935 5.5 1.74935C3.34526 1.74935 1.58333 3.51128 1.58333 5.66602C1.58333 7.8399 3.34608 9.58268 5.5 9.58268C7.67307 9.58268 9.41667 7.83909 9.41667 5.66602Z" fill="#3D80B3" stroke="#3D80B3" stroke-width="0.5"/>
</svg>
