<svg width="100" height="101" viewBox="0 0 100 101" fill="none" xmlns="http://www.w3.org/2000/svg">
<g clip-path="url(#clip0_3662_29736)">
<path d="M74.5765 56.3867C68.1968 56.3867 62.1748 59.0664 58.051 63.7393C57.4324 64.4427 57.4985 65.5138 58.2002 66.1325C58.9036 66.7511 59.9714 66.6867 60.5934 65.9833C64.0731 62.0393 69.1714 59.7765 74.5765 59.7765C84.8561 59.7765 93.2205 68.141 93.2205 78.4206C93.2205 88.7003 84.8561 97.0647 74.5765 97.0647C66.1155 97.0647 58.6324 91.3579 56.3714 83.5054H64.407V80.1155H50.8477V93.6749H54.2375V87.4647C57.7849 95.1443 65.7307 100.455 74.5765 100.455C86.7256 100.455 96.6104 90.5698 96.6104 78.4206C96.6104 66.2715 86.7256 56.3867 74.5765 56.3867Z" fill="#3D80B3"/>
<path d="M45.7635 70.2602C44.3618 70.2602 42.9889 70.233 41.6415 70.1856C40.8228 70.1551 40.0313 70.1025 39.2313 70.0568C38.7296 70.028 38.2144 70.0093 37.7211 69.9737C36.6601 69.8975 35.6296 69.7992 34.611 69.6941C34.411 69.6737 34.2008 69.6585 34.0025 69.6364C32.8364 69.5093 31.7008 69.3636 30.5923 69.2009C30.5567 69.1958 30.5177 69.1907 30.4805 69.1856C24.7483 68.3381 19.8296 67.0483 15.9822 65.5127C15.9584 65.5025 15.9313 65.4941 15.9076 65.4839C15.2008 65.2009 14.5398 64.9076 13.9076 64.6093C13.8313 64.5737 13.7499 64.5381 13.6737 64.5008C13.1076 64.228 12.5822 63.9466 12.0805 63.6636C11.9584 63.5941 11.833 63.5263 11.7144 63.4568C11.2771 63.2009 10.8788 62.9381 10.4974 62.6754C10.3499 62.572 10.1974 62.4703 10.0584 62.3669C9.73639 62.128 9.44656 61.889 9.17029 61.6466C9.01774 61.5127 8.8652 61.3805 8.72791 61.2449C8.50079 61.0263 8.30079 60.8042 8.11266 60.5822C7.98045 60.4263 7.85334 60.2686 7.74147 60.1127C7.59232 59.9042 7.4652 59.6958 7.34995 59.4873C7.25842 59.3195 7.17707 59.1517 7.10757 58.9839C7.02452 58.7788 6.95842 58.5737 6.91096 58.3703C6.84995 58.0958 6.78046 57.8195 6.78046 57.5483V43.6381C6.82791 43.6822 6.88724 43.7246 6.93639 43.7686C7.30588 44.0924 7.68215 44.4161 8.10588 44.728C14.4906 49.5585 27.2601 53.3093 45.7652 53.3093C64.1923 53.3093 76.9279 49.5873 83.3398 44.7873C83.8516 44.4144 84.3127 44.0297 84.7466 43.6381L84.7483 49.9212C84.7483 50.8585 85.5059 51.6161 86.4432 51.6161C87.3805 51.6161 88.1381 50.8585 88.1381 49.9212V38.0568V37.2093V16.8703V16.0229C88.1381 15.7483 88.0584 15.4991 87.9432 15.2703C85.9245 6.84321 68.1279 0.455078 45.7635 0.455078C23.3991 0.455078 5.60079 6.84321 3.58554 15.2686C3.47029 15.4975 3.39062 15.7466 3.39062 16.0229V16.8703V37.2093V38.0568V57.5483V58.3958V78.7347C3.39062 79.0076 3.46181 79.2653 3.58554 79.4941C5.51605 87.6856 21.7059 92.511 37.1618 93.6703C37.2042 93.6737 37.2483 93.6754 37.2906 93.6754C38.1703 93.6754 38.9127 92.9992 38.9788 92.1076C39.0483 91.1737 38.3499 90.3602 37.416 90.2907C18.5788 88.8771 7.60079 83.1398 6.83469 78.4602C6.82113 78.3839 6.80418 78.311 6.78046 78.2381V63.9771C6.82791 64.0212 6.88724 64.0636 6.93639 64.1076C7.30588 64.4314 7.68215 64.7551 8.10588 65.0669C14.4906 69.8975 27.2601 73.6483 45.7652 73.6483C46.7025 73.6483 47.4601 72.8907 47.4601 71.9534C47.4601 71.0161 46.7008 70.2602 45.7635 70.2602ZM7.7991 24.1517C8.30757 24.5517 8.85673 24.9466 9.45164 25.3314C9.57537 25.411 9.71435 25.489 9.84317 25.5686C10.3432 25.8788 10.8686 26.1839 11.4245 26.4805C11.6296 26.5907 11.8347 26.6991 12.0466 26.8076C12.6652 27.1229 13.3144 27.428 13.9974 27.7263C14.1093 27.7754 14.211 27.8263 14.3245 27.8737C15.1194 28.211 15.9635 28.533 16.8415 28.8432C17.0838 28.9297 17.3381 29.011 17.5872 29.0958C18.2855 29.3314 19.0076 29.5568 19.755 29.7754C20.0245 29.8534 20.2889 29.9347 20.5652 30.011C21.5567 30.2856 22.5805 30.5466 23.655 30.7873C23.8025 30.8212 23.9618 30.85 24.111 30.8822C25.0584 31.089 26.0415 31.2805 27.0516 31.4585C27.394 31.5195 27.7415 31.5771 28.0906 31.6347C29.0516 31.7924 30.0415 31.9381 31.0567 32.0703C31.3177 32.1042 31.5669 32.1415 31.8313 32.1754C33.0923 32.328 34.3974 32.4585 35.7381 32.5703C36.0686 32.5975 36.4127 32.6178 36.7483 32.6415C37.8211 32.7195 38.9177 32.7839 40.0398 32.8347C40.4482 32.8534 40.855 32.872 41.272 32.8856C42.7347 32.9364 44.2228 32.9703 45.7635 32.9703C47.3042 32.9703 48.794 32.9347 50.255 32.8856C50.6703 32.872 51.0771 32.8517 51.4872 32.8347C52.6093 32.7839 53.7059 32.7195 54.7788 32.6415C55.1144 32.6161 55.4567 32.5975 55.7889 32.5703C57.1296 32.4602 58.4347 32.328 59.6957 32.1754C59.9601 32.1432 60.2093 32.1042 60.4703 32.0703C61.4855 31.9381 62.4737 31.7924 63.4364 31.6347C63.7855 31.5771 64.133 31.5195 64.4754 31.4585C65.4855 31.2805 66.4686 31.089 67.4161 30.8822C67.5652 30.85 67.7245 30.8212 67.872 30.7873C68.9466 30.5466 69.9703 30.2856 70.9618 30.011C71.2381 29.9347 71.5025 29.8551 71.772 29.7754C72.5194 29.5585 73.2415 29.3314 73.9398 29.0958C74.1889 29.011 74.4432 28.9297 74.6855 28.8432C75.5635 28.5314 76.4093 28.2093 77.2025 27.8737C77.316 27.8263 77.4177 27.7737 77.5296 27.7263C78.2127 27.428 78.8618 27.1229 79.4805 26.8076C79.6923 26.6991 79.8991 26.5907 80.1025 26.4805C80.6567 26.1839 81.1838 25.8805 81.6822 25.5686C81.811 25.489 81.95 25.411 82.0737 25.3314C82.6686 24.9466 83.2177 24.5534 83.7262 24.1517C83.8533 24.05 83.9669 23.9483 84.0906 23.8466C84.311 23.6636 84.5432 23.4822 84.7466 23.2975V37.2076C84.7466 37.4805 84.6771 37.7551 84.6127 38.0297C84.5652 38.2347 84.4991 38.4381 84.4161 38.6432C84.3483 38.811 84.2652 38.9788 84.1737 39.1466C84.0601 39.3551 83.933 39.5636 83.7822 39.772C83.6703 39.928 83.5432 40.0856 83.411 40.2415C83.2228 40.4619 83.0228 40.6839 82.7957 40.9042C82.6567 41.0398 82.5059 41.172 82.3533 41.3059C82.0771 41.5483 81.7872 41.7873 81.4652 42.0263C81.3262 42.1297 81.1737 42.2314 81.0262 42.3347C80.6449 42.5975 80.2466 42.8602 79.8093 43.1161C79.6923 43.1856 79.5652 43.2551 79.4432 43.3229C78.9415 43.6059 78.416 43.8873 77.8499 44.1602C77.7737 44.1975 77.6923 44.233 77.6161 44.2686C76.9838 44.5669 76.3228 44.8602 75.6161 45.1432C75.5923 45.1534 75.5652 45.1619 75.5415 45.172C71.694 46.7076 66.7754 47.9975 61.0432 48.8449C61.0076 48.85 60.9686 48.8534 60.9313 48.8602C59.8245 49.0229 58.6872 49.1686 57.5211 49.2958C57.3228 49.3178 57.1127 49.3314 56.9127 49.3534C55.8923 49.4585 54.8618 49.5568 53.8025 49.633C53.3093 49.6686 52.794 49.6873 52.2923 49.7161C51.494 49.7619 50.7025 49.8161 49.8822 49.8449C48.5347 49.8924 47.1601 49.9195 45.7601 49.9195C44.3601 49.9195 42.9855 49.8924 41.6381 49.8449C40.8194 49.8144 40.0279 49.7619 39.2279 49.7161C38.7262 49.6873 38.211 49.6686 37.7177 49.633C36.6567 49.5568 35.6262 49.4585 34.6076 49.3534C34.4076 49.333 34.1974 49.3178 33.9991 49.2958C32.833 49.1686 31.6974 49.0229 30.5889 48.8602C30.5533 48.8551 30.5144 48.85 30.4771 48.8449C24.7449 47.9975 19.8262 46.7076 15.9788 45.172C15.955 45.1619 15.9279 45.1534 15.9042 45.1432C15.1974 44.8602 14.5364 44.5669 13.9042 44.2686C13.8279 44.233 13.7466 44.1975 13.6703 44.1602C13.1042 43.8873 12.5788 43.6059 12.0771 43.3229C11.955 43.2534 11.8296 43.1856 11.711 43.1161C11.2737 42.8602 10.8754 42.5975 10.494 42.3347C10.3466 42.2314 10.194 42.1297 10.055 42.0263C9.733 41.7873 9.44317 41.5483 9.1669 41.3059C9.01435 41.172 8.86181 41.0398 8.72452 40.9042C8.4974 40.6856 8.2974 40.4636 8.10927 40.2415C7.97707 40.0856 7.84995 39.928 7.73808 39.772C7.58893 39.5636 7.46181 39.3551 7.34656 39.1466C7.25503 38.9788 7.17368 38.811 7.10418 38.6432C7.02113 38.4381 6.95503 38.233 6.90757 38.0297C6.84995 37.7568 6.78046 37.4805 6.78046 37.2093V23.2991C6.98385 23.4839 7.21605 23.6653 7.43639 23.8483C7.55842 23.9483 7.67198 24.0517 7.7991 24.1517ZM45.7635 3.84491C68.7381 3.84491 84.7466 10.7093 84.7466 16.8703C84.7466 22.8839 68.7381 29.5822 45.7635 29.5822C22.7889 29.5822 6.78046 22.8839 6.78046 16.8703C6.78046 10.7093 22.7889 3.84491 45.7635 3.84491Z" fill="#3D80B3"/>
</g>
<defs>
<clipPath id="clip0_3662_29736">
<rect width="100" height="100" fill="white" transform="translate(0 0.455078)"/>
</clipPath>
</defs>
</svg>
