<svg width="45" height="38" viewBox="0 0 45 38" fill="none" xmlns="http://www.w3.org/2000/svg">
<path d="M21.4583 8.86377H23.5417C24.117 8.86377 24.5833 9.37254 24.5833 10.0001V10.6465C24.5833 11.1326 24.8824 11.555 25.294 11.7414C25.7057 11.9278 26.1851 11.8568 26.5003 11.5129L26.9194 11.0557C27.3262 10.6119 27.9857 10.6119 28.3925 11.0557L29.8657 12.6628C30.2724 13.1065 30.2724 13.8261 29.8657 14.2698L29.4466 14.7269C29.1314 15.0709 29.0662 15.5938 29.2372 16.043C29.4081 16.492 29.7952 16.8183 30.2409 16.8183L30.8333 16.8183C31.4086 16.8183 31.875 17.3271 31.875 17.9547V20.2274C31.875 20.855 31.4086 21.3638 30.8333 21.3638H30.2409C29.7952 21.3638 29.4081 21.69 29.2372 22.139C29.0663 22.5882 29.1314 23.1112 29.4466 23.4551L29.8657 23.9122C30.2725 24.356 30.2725 25.0755 29.8657 25.5193L28.3925 27.1263C27.9857 27.5701 27.3262 27.5701 26.9194 27.1263L26.5004 26.6692C26.1851 26.3253 25.7057 26.2542 25.294 26.4407C24.8824 26.6271 24.5833 27.0495 24.5833 27.5356V28.1819C24.5833 28.8095 24.117 29.3183 23.5417 29.3183H21.4583C20.883 29.3183 20.4167 28.8095 20.4167 28.1819V27.5356C20.4167 27.0495 20.1176 26.6271 19.706 26.4407C19.2942 26.2542 18.8148 26.3253 18.4996 26.6692L18.0805 27.1263C17.6737 27.5701 17.0142 27.5701 16.6074 27.1263L15.1343 25.5193C14.7275 25.0755 14.7275 24.356 15.1343 23.9122L15.5534 23.455C15.8686 23.1111 15.9337 22.5882 15.7628 22.139C15.5919 21.69 15.2048 21.3638 14.7592 21.3638H14.1667C13.5914 21.3638 13.125 20.855 13.125 20.2274V17.9547C13.125 17.3271 13.5914 16.8183 14.1667 16.8183L14.7591 16.8183C15.2048 16.8183 15.5919 16.492 15.7628 16.043C15.9337 15.5939 15.8686 15.0709 15.5534 14.727L15.1343 14.2698C14.7275 13.8261 14.7275 13.1066 15.1343 12.6628L16.6074 11.0557C17.0142 10.6119 17.6738 10.6119 18.0806 11.0557L18.4996 11.5129C18.8149 11.8568 19.2943 11.9279 19.706 11.7414C20.1176 11.555 20.4167 11.1326 20.4167 10.6465V10.0001C20.4167 9.37254 20.883 8.86377 21.4583 8.86377Z" stroke="#1D1D1D" stroke-width="2.5" stroke-linecap="round"/>
<path d="M24.5833 19.091C24.5833 20.3462 23.6506 21.3638 22.5 21.3638C21.3494 21.3638 20.4167 20.3462 20.4167 19.091C20.4167 17.8358 21.3494 16.8183 22.5 16.8183C23.6506 16.8183 24.5833 17.8358 24.5833 19.091Z" stroke="#1D1D1D" stroke-width="2.5" stroke-linecap="round"/>
</svg>
