<svg width="25" height="29" viewBox="0 0 25 29" fill="none" xmlns="http://www.w3.org/2000/svg">
<path d="M21.8744 22.6652V19.5859C21.8858 19.0825 21.727 18.5921 21.428 18.2079C20.5849 17.1245 17.6932 16.4315 16.547 16.6976C15.6534 16.9051 15.0283 17.8838 14.4172 18.5492C12.0569 17.088 10.1027 14.9603 8.76062 12.3906C9.37177 11.7252 10.2707 11.0446 10.4613 10.0718C10.7053 8.82577 10.071 5.69136 9.0847 4.76789C8.7378 4.44308 8.29424 4.26668 7.83672 4.27158H5.00845C3.93081 4.27269 3.03424 5.32711 3.13236 6.50919C3.125 16.6976 10.4167 24.726 19.8192 24.718C20.9086 24.8252 21.8788 23.8423 21.8744 22.6652Z" stroke="#3D80B3" stroke-width="1.5" stroke-linecap="round" stroke-linejoin="round"/>
</svg>
