<svg width="100" height="101" viewBox="0 0 100 101" fill="none" xmlns="http://www.w3.org/2000/svg">
<g clip-path="url(#clip0_3662_29730)">
<path d="M56.0352 59.0762V100.455H97.4145V59.0762H56.0352ZM93.9662 97.0072H59.4834V62.5244H75.0007V84.2244L67.599 76.8227L65.161 79.2607L76.7248 90.8244L88.2886 79.2607L85.8507 76.8227L78.4489 84.2244V62.5244H93.9662V97.0072Z" fill="#3D80B3"/>
<path d="M45.6894 72.8689C44.2635 72.8689 42.867 72.8413 41.4963 72.793C40.6652 72.762 39.8635 72.7085 39.0532 72.662C38.5411 72.6327 38.0135 72.6137 37.5101 72.5775C36.4342 72.4999 35.3894 72.3999 34.3566 72.293C34.1497 72.2706 33.9325 72.2568 33.7273 72.2344C32.5446 72.1051 31.3928 71.9568 30.2704 71.793C30.229 71.7878 30.1859 71.7827 30.1463 71.7775C24.3204 70.9171 19.3204 69.6051 15.4084 68.0447C15.379 68.0327 15.348 68.0223 15.3204 68.0102C14.6066 67.7223 13.9359 67.4275 13.2963 67.124C13.2152 67.0861 13.129 67.0482 13.048 67.0085C12.4739 66.7327 11.9446 66.4482 11.4359 66.162C11.3101 66.0896 11.1773 66.0189 11.0549 65.9465C10.6135 65.6878 10.2101 65.4223 9.82387 65.1568C9.67042 65.0499 9.51352 64.9447 9.37042 64.8378C9.04628 64.5982 8.75318 64.3551 8.47387 64.112C8.31525 63.974 8.15835 63.8361 8.01525 63.6965C7.78594 63.474 7.58594 63.2516 7.39628 63.0292C7.25835 62.8671 7.12732 62.7051 7.01008 62.5413C6.86008 62.3327 6.73249 62.124 6.6187 61.9154C6.52387 61.7413 6.43939 61.5672 6.36697 61.393C6.28421 61.1878 6.2187 60.9827 6.17042 60.7792C6.1049 60.4982 6.03421 60.2171 6.03421 59.9378V45.7878C6.06525 45.8154 6.10145 45.843 6.13249 45.8706C6.53249 46.224 6.94283 46.5758 7.4049 46.9137C13.9084 51.8189 26.8877 55.6275 45.6894 55.6275C64.4394 55.6275 77.3946 51.8396 83.9153 46.9551C84.4308 46.5792 84.8928 46.1913 85.3325 45.7982C85.3359 45.7947 85.3411 45.7913 85.3446 45.7878V52.1792C85.3446 53.1327 86.1152 53.9034 87.0687 53.9034C88.0221 53.9034 88.7928 53.1327 88.7928 52.1792V40.1102V39.2482V18.5585V17.6965C88.7928 17.4154 88.7118 17.162 88.5928 16.9292C86.4877 7.98094 67.3463 0.455078 45.6894 0.455078C24.0308 0.455078 4.89111 7.98094 2.78594 16.9292C2.66697 17.162 2.58594 17.4171 2.58594 17.6965V18.5585V39.2482V40.1102V59.9378V60.7999V81.4896C2.58594 81.7671 2.65835 82.0292 2.78421 82.262C4.74801 90.5947 21.217 95.5033 36.9411 96.6827C36.9842 96.6861 37.029 96.6878 37.0721 96.6878C37.967 96.6878 38.7221 95.9999 38.7894 95.093C38.8618 94.143 38.148 93.3154 37.1997 93.2447C18.0359 91.8068 6.8687 85.9723 6.08939 81.2103C6.07559 81.1327 6.05835 81.0585 6.03421 80.9844V66.4775C6.06525 66.5051 6.10145 66.5327 6.13249 66.5602C6.53249 66.9137 6.94283 67.2654 7.4049 67.6033C13.9084 72.5085 26.8877 76.3171 45.6894 76.3171C46.6411 76.3171 47.4135 75.5465 47.4135 74.593C47.4135 73.6396 46.6411 72.8689 45.6894 72.8689ZM7.07042 25.9671C7.58766 26.374 8.14628 26.7758 8.75145 27.1671C8.87732 27.2482 9.0187 27.3275 9.14973 27.4085C9.65663 27.724 10.1928 28.0327 10.7566 28.3361C10.9652 28.4482 11.1739 28.5585 11.3894 28.6689C12.0187 28.9896 12.679 29.2999 13.3739 29.6034C13.4877 29.6534 13.5911 29.7051 13.7066 29.7534C14.5152 30.0965 15.3739 30.424 16.267 30.7396C16.5135 30.8275 16.7721 30.9103 17.0256 30.9965C17.7359 31.2361 18.4704 31.4654 19.2308 31.6878C19.5049 31.7671 19.7739 31.8499 20.0549 31.9275C21.0635 32.2068 22.1049 32.4723 23.198 32.7171C23.348 32.7516 23.5101 32.7809 23.6618 32.8137C24.6256 33.024 25.6256 33.2189 26.6532 33.3999C27.0015 33.462 27.3549 33.5206 27.7101 33.5792C28.6877 33.7396 29.6946 33.8878 30.7273 34.0223C30.9928 34.0568 31.2463 34.0947 31.5152 34.1292C32.798 34.2844 34.1256 34.4171 35.4894 34.5309C35.8256 34.5585 36.1756 34.5792 36.517 34.6034C37.6084 34.6827 38.7239 34.7482 39.8652 34.7999C40.2808 34.8189 40.6946 34.8378 41.1187 34.8516C42.6066 34.9016 44.1204 34.9378 45.6894 34.9378C47.2584 34.9378 48.7721 34.9016 50.2584 34.8516C50.6808 34.8378 51.0946 34.8171 51.5118 34.7999C52.6532 34.7482 53.7687 34.6827 54.8601 34.6034C55.2015 34.5775 55.5497 34.5585 55.8877 34.5309C57.2515 34.4189 58.579 34.2844 59.8618 34.1292C60.1308 34.0965 60.3842 34.0568 60.6497 34.0223C61.6825 33.8878 62.6877 33.7396 63.667 33.5792C64.0221 33.5206 64.3756 33.462 64.7239 33.3999C65.7515 33.2189 66.7515 33.024 67.7152 32.8137C67.867 32.7809 68.029 32.7516 68.179 32.7171C69.2721 32.4723 70.3135 32.2068 71.3221 31.9275C71.6032 31.8499 71.8721 31.7689 72.1463 31.6878C72.9066 31.4671 73.6411 31.2361 74.3515 30.9965C74.6049 30.9103 74.8635 30.8275 75.1101 30.7396C76.0032 30.4223 76.8635 30.0947 77.6704 29.7534C77.7859 29.7051 77.8894 29.6516 78.0032 29.6034C78.698 29.2999 79.3584 28.9896 79.9877 28.6689C80.2032 28.5585 80.4135 28.4482 80.6204 28.3361C81.1842 28.0344 81.7204 27.7258 82.2273 27.4085C82.3584 27.3275 82.4997 27.2482 82.6256 27.1671C83.2308 26.7758 83.7894 26.3758 84.3066 25.9671C84.4359 25.8637 84.5515 25.7603 84.6773 25.6568C84.9015 25.4706 85.1377 25.2861 85.3446 25.0982V39.2482C85.3446 39.5258 85.2739 39.8051 85.2084 40.0844C85.1601 40.293 85.0928 40.4999 85.0084 40.7085C84.9394 40.8792 84.8549 41.0499 84.7618 41.2206C84.6463 41.4327 84.517 41.6447 84.3652 41.8551C84.2497 42.0154 84.1204 42.1758 83.9859 42.3344C83.7946 42.5603 83.5911 42.7844 83.3618 43.0085C83.2204 43.1465 83.067 43.2809 82.9118 43.4171C82.6308 43.6637 82.3359 43.9068 82.0083 44.1499C81.867 44.2551 81.7118 44.3585 81.5618 44.4637C81.1739 44.7309 80.767 44.9982 80.3239 45.2585C80.2049 45.3292 80.0756 45.3982 79.9532 45.4689C79.4428 45.7568 78.9083 46.043 78.3325 46.3206C78.2549 46.3585 78.1721 46.3947 78.0946 46.4309C77.4514 46.7344 76.779 47.0327 76.0601 47.3206C76.0342 47.3309 76.0083 47.3396 75.9825 47.3499C72.0687 48.912 67.0652 50.224 61.2359 51.0861C61.1997 51.0913 61.1601 51.0947 61.1221 51.1016C59.9963 51.2671 58.8394 51.4154 57.6532 51.5447C57.4515 51.5671 57.2377 51.5809 57.0342 51.6034C55.9963 51.7103 54.948 51.8102 53.8704 51.8878C53.3687 51.924 52.8446 51.943 52.3342 51.9723C51.5221 52.0189 50.717 52.074 49.8842 52.1034C48.5118 52.1516 47.1152 52.1792 45.6894 52.1792C44.2635 52.1792 42.867 52.1516 41.4963 52.1034C40.6652 52.0723 39.8635 52.0189 39.0532 51.9723C38.5411 51.943 38.0135 51.924 37.5101 51.8878C36.4342 51.8102 35.3894 51.7103 34.3566 51.6034C34.1497 51.5809 33.9325 51.5671 33.7273 51.5447C32.5446 51.4154 31.3928 51.2671 30.2704 51.1034C30.229 51.0982 30.1859 51.093 30.1463 51.0878C24.3204 50.2275 19.3204 48.9154 15.4084 47.3551C15.379 47.343 15.348 47.3327 15.3204 47.3206C14.6066 47.0327 13.9359 46.7378 13.2963 46.4344C13.2152 46.3965 13.129 46.3585 13.048 46.3189C12.4739 46.043 11.9446 45.7585 11.4359 45.4723C11.3101 45.3999 11.1773 45.3292 11.0549 45.2568C10.6135 44.9982 10.2101 44.7327 9.82387 44.4671C9.67042 44.3603 9.51352 44.2551 9.37042 44.1482C9.04628 43.9085 8.75318 43.6654 8.47387 43.4223C8.31525 43.2844 8.15835 43.1465 8.01525 43.0068C7.78594 42.7844 7.58594 42.562 7.39628 42.3396C7.25835 42.1775 7.12732 42.0154 7.01008 41.8516C6.86008 41.643 6.73249 41.4344 6.6187 41.2258C6.52387 41.0516 6.43939 40.8775 6.36697 40.7034C6.28421 40.4982 6.2187 40.293 6.17042 40.0896C6.1049 39.8085 6.03421 39.5275 6.03421 39.2482V25.0982C6.24111 25.2861 6.47732 25.4706 6.70145 25.6568C6.82559 25.7603 6.94111 25.8637 7.07042 25.9671ZM45.6894 3.90335C66.9687 3.90335 84.2342 11.4275 85.2928 17.9327C85.2946 17.9482 85.2877 17.962 85.2911 17.9758C85.3239 18.1689 85.3446 18.3637 85.3446 18.5585C85.3446 24.6758 69.0583 31.4896 45.6894 31.4896C22.3204 31.4896 6.03421 24.6758 6.03421 18.5585C6.03421 18.3637 6.05663 18.1689 6.08939 17.9758C6.09111 17.9602 6.08421 17.9447 6.08766 17.9292C7.14973 11.4258 24.4118 3.90335 45.6894 3.90335Z" fill="#3D80B3"/>
</g>
<defs>
<clipPath id="clip0_3662_29730">
<rect width="100" height="100" fill="white" transform="translate(0 0.455078)"/>
</clipPath>
</defs>
</svg>
