<svg width="25" height="28" viewBox="0 0 25 28" fill="none" xmlns="http://www.w3.org/2000/svg">
<path d="M3.12435 22.0907H1.04102V20.9544C1.04102 18.8364 2.3689 17.0567 4.16602 16.5521M6.24935 12.8059C5.03561 12.3379 4.16602 11.0751 4.16602 9.59074C4.16602 8.1064 5.03561 6.84363 6.24935 6.37564M21.8744 22.0907H23.9577V20.9544C23.9577 18.8364 22.6298 17.0567 20.8327 16.5521M18.7494 6.37564C19.9631 6.84363 20.8327 8.1064 20.8327 9.59074C20.8327 11.0751 19.9631 12.3379 18.7494 12.8059M10.416 16.4089H14.5827C16.8839 16.4089 18.7494 18.444 18.7494 20.9544V22.0907H6.24935V20.9544C6.24935 18.444 8.11483 16.4089 10.416 16.4089ZM15.6244 9.59073C15.6244 11.4735 14.2252 12.9998 12.4993 12.9998C10.7735 12.9998 9.37435 11.4735 9.37435 9.59073C9.37435 7.70794 10.7735 6.18164 12.4993 6.18164C14.2252 6.18164 15.6244 7.70794 15.6244 9.59073Z" stroke="#3D80B3" stroke-width="1.5" stroke-linecap="round" stroke-linejoin="round"/>
</svg>
