<svg width="30" height="31" viewBox="0 0 30 31" fill="none" xmlns="http://www.w3.org/2000/svg">
<path d="M0 15.5C0 23.7843 6.71573 30.5 15 30.5C23.2843 30.5 30 23.7843 30 15.5C30 7.21573 23.2843 0.5 15 0.5C6.71573 0.5 0 7.21573 0 15.5Z" fill="#1D1D1D"/>
<path d="M16.427 14.3515L22.0111 8H20.6879L15.8392 13.5149L11.9666 8H7.5L13.3562 16.3395L7.5 23H8.82333L13.9436 17.1761L18.0334 23H22.5L16.4267 14.3515H16.427ZM14.6146 16.413L14.0212 15.5825L9.30014 8.97476H11.3327L15.1427 14.3075L15.736 15.1379L20.6885 22.0696H18.656L14.6146 16.4133V16.413Z" fill="white"/>
</svg>
